<svg xmlns="http://www.w3.org/2000/svg" width="47" height="39" viewBox="0 0 47 39" fill="none">
  <g clip-path="url(#clip0_103_3)">
    <path d="M22.43 31.98L14.99 22.84L25.79 9.54H19.9C17.25 9.54 15.44 10.35 13.84 12.23L8.15 19.23V7.31V0H2.43C1.09 0 0 1.09 0 2.44V7.31V31.98V38.31H5.71C7.06 38.31 8.14 37.22 8.14 35.87V31.98V26.33L12.77 32L16.7 36.84C17.5 37.84 18.54 38.3 19.61 38.3H27.58L22.43 31.98Z" fill="#1D1D1B"/>
    <path d="M37.0601 38.31C32.6701 38.31 29.6201 35.28 29.6201 30.88V2.43C29.6201 1.09 30.7101 0 32.0601 0H37.7701V29.35C37.7701 30.56 38.7501 31.54 39.9501 31.54H45.7701V35.88C45.7701 37.23 44.6801 38.32 43.3301 38.32H37.0601V38.31Z" fill="#1D1D1B"/>
    <path d="M8.90991 18.2397L8.91991 18.2297C8.92991 18.2297 8.90991 18.2397 8.90991 18.2397ZM46.9499 7.42969L46.4499 7.95969C46.4199 7.96969 44.8999 9.52969 40.4999 9.52969H19.7499C16.4699 9.52969 14.9299 10.8697 13.7499 12.3097L13.0999 13.1097C13.0799 13.1297 13.0599 13.1497 13.0499 13.1597L8.92991 18.2297C10.4299 17.0997 12.4899 16.4297 14.5799 16.4297H40.5099C43.6599 16.4297 46.6799 15.4897 46.9299 13.1397C46.9599 12.9497 46.9599 12.8397 46.9599 12.8397V7.42969H46.9499Z" fill="#E20613"/>
  </g>
  <defs>
    <clipPath id="clip0_103_3">
      <rect width="46.95" height="38.31" fill="white"/>
    </clipPath>
  </defs>
</svg>